<svg version="1.1" xmlns="http://www.w3.org/2000/svg" xmlns:xlink="http://www.w3.org/1999/xlink" width="398.26806640625" height="286"><defs/><g><g transform="translate(-246,-46) scale(1,1)"><rect fill="#C0C0C0" stroke="none" x="263" y="215" width="168.30078125" height="100" opacity="0.2"/></g><g transform="translate(-246,-46) scale(1,1)"><rect fill="#ffffff" stroke="none" x="256" y="208" width="168.30078125" height="100"/></g><g transform="translate(-246,-46) scale(1,1)"><path fill="none" stroke="#000000" d="M 256 208 L 424.30078125 208 L 424.30078125 308 L 256 308 L 256 208 Z Z" stroke-miterlimit="10"/></g><g transform="translate(-246,-46) scale(1,1)"><path fill="none" stroke="#000000" d="M 256 233 L 424.30078125 233" stroke-miterlimit="10"/></g><g transform="translate(-246,-46) scale(1,1)"><path fill="none" stroke="#000000" d="M 256 271 L 424.30078125 271" stroke-miterlimit="10"/></g><g transform="translate(-246,-46) scale(1,1)"><g><path fill="none" stroke="none"/><text fill="#000000" stroke="none" font-family="Arial" font-size="13px" font-style="normal" font-weight="bold" text-decoration="none" x="310.516357421875" y="227.5">Candidato</text></g></g><g transform="translate(-246,-46) scale(1,1)"><g><path fill="none" stroke="none"/><text fill="#000000" stroke="none" font-family="Arial" font-size="13px" font-style="normal" font-weight="normal" text-decoration="none" x="261" y="250.5">-nombre: String</text></g></g><g transform="translate(-246,-46) scale(1,1)"><g><path fill="none" stroke="none"/><text fill="#000000" stroke="none" font-family="Arial" font-size="13px" font-style="normal" font-weight="normal" text-decoration="none" x="261" y="265.5">-partido: Partido</text></g></g><g transform="translate(-246,-46) scale(1,1)"><g><path fill="none" stroke="none"/><text fill="#000000" stroke="none" font-family="Arial" font-size="13px" font-style="normal" font-weight="normal" text-decoration="none" x="261" y="288.5">+mostrarInformacion(): void</text></g></g><g transform="translate(-246,-46) scale(1,1)"><g><path fill="none" stroke="none"/><text fill="#000000" stroke="none" font-family="Arial" font-size="13px" font-style="normal" font-weight="normal" text-decoration="none" x="261" y="303.5">+toString(): String</text></g></g><g transform="translate(-246,-46) scale(1,1)"><rect fill="#C0C0C0" stroke="none" x="263" y="71" width="98.5908203125" height="72" opacity="0.2"/></g><g transform="translate(-246,-46) scale(1,1)"><rect fill="#ffffff" stroke="none" x="256" y="64" width="98.5908203125" height="72"/></g><g transform="translate(-246,-46) scale(1,1)"><path fill="none" stroke="#000000" d="M 256 64 L 354.5908203125 64 L 354.5908203125 136 L 256 136 L 256 64 Z Z" stroke-miterlimit="10"/></g><g transform="translate(-246,-46) scale(1,1)"><path fill="none" stroke="#000000" d="M 256 89 L 354.5908203125 89" stroke-miterlimit="10"/></g><g transform="translate(-246,-46) scale(1,1)"><path fill="none" stroke="#000000" d="M 256 127 L 354.5908203125 127" stroke-miterlimit="10"/></g><g transform="translate(-246,-46) scale(1,1)"><g><path fill="none" stroke="none"/><text fill="#000000" stroke="none" font-family="Arial" font-size="13px" font-style="normal" font-weight="bold" text-decoration="none" x="284.700439453125" y="83.5">Partido</text></g></g><g transform="translate(-246,-46) scale(1,1)"><g><path fill="none" stroke="none"/><text fill="#000000" stroke="none" font-family="Arial" font-size="13px" font-style="normal" font-weight="normal" text-decoration="none" x="261" y="106.5">-nombre: String</text></g></g><g transform="translate(-246,-46) scale(1,1)"><g><path fill="none" stroke="none"/><text fill="#000000" stroke="none" font-family="Arial" font-size="13px" font-style="normal" font-weight="normal" text-decoration="none" x="261" y="121.5">-color: Color</text></g></g><g transform="translate(-246,-46) scale(1,1)"><path fill="none" stroke="#000000" d="M 313 136 L 313 208" stroke-miterlimit="10"/></g><g transform="translate(-246,-46) scale(1,1)"><path fill="#000000" stroke="none" d="M 308.790482243984 197.83732514237585 L 313 208 L 317.209517756016 197.83732514237585 L 313 186"/></g><g transform="translate(-246,-46) scale(1,1)"><path fill="none" stroke="#000000" d="M 308.790482243984 197.83732514237585 L 313 208 L 317.209517756016 197.83732514237585 L 313 186 L 308.790482243984 197.83732514237585" stroke-miterlimit="10"/></g><g transform="translate(-246,-46) scale(1,1)"><rect fill="#C0C0C0" stroke="none" x="495" y="199" width="146.26806640625" height="130" opacity="0.2"/></g><g transform="translate(-246,-46) scale(1,1)"><rect fill="#ffffff" stroke="none" x="488" y="192" width="146.26806640625" height="130"/></g><g transform="translate(-246,-46) scale(1,1)"><path fill="none" stroke="#000000" d="M 488 192 L 634.26806640625 192 L 634.26806640625 322 L 488 322 L 488 192 Z Z" stroke-miterlimit="10"/></g><g transform="translate(-246,-46) scale(1,1)"><path fill="none" stroke="#000000" d="M 488 217 L 634.26806640625 217" stroke-miterlimit="10"/></g><g transform="translate(-246,-46) scale(1,1)"><path fill="none" stroke="#000000" d="M 488 285 L 634.26806640625 285" stroke-miterlimit="10"/></g><g transform="translate(-246,-46) scale(1,1)"><g><path fill="none" stroke="none"/><text fill="#000000" stroke="none" font-family="Arial" font-size="13px" font-style="normal" font-weight="bold" text-decoration="none" x="537.29541015625" y="211.5">Formula</text></g></g><g transform="translate(-246,-46) scale(1,1)"><g><path fill="none" stroke="none"/><text fill="#000000" stroke="none" font-family="Arial" font-size="13px" font-style="normal" font-weight="normal" text-decoration="none" x="493" y="234.5">-nombreFormula: String</text></g></g><g transform="translate(-246,-46) scale(1,1)"><g><path fill="none" stroke="none"/><text fill="#000000" stroke="none" font-family="Arial" font-size="13px" font-style="normal" font-weight="normal" text-decoration="none" x="493" y="249.5">-propietario: Candidato</text></g></g><g transform="translate(-246,-46) scale(1,1)"><g><path fill="none" stroke="none"/><text fill="#000000" stroke="none" font-family="Arial" font-size="13px" font-style="normal" font-weight="normal" text-decoration="none" x="493" y="264.5">-suplente: Candidato</text></g></g><g transform="translate(-246,-46) scale(1,1)"><g><path fill="none" stroke="none"/><text fill="#000000" stroke="none" font-family="Arial" font-size="13px" font-style="normal" font-weight="normal" text-decoration="none" x="493" y="279.5">-partido: Partido</text></g></g><g transform="translate(-246,-46) scale(1,1)"><g><path fill="none" stroke="none"/><text fill="#000000" stroke="none" font-family="Arial" font-size="13px" font-style="normal" font-weight="normal" text-decoration="none" x="493" y="302.5">+mostrarInfo(): void</text></g></g><g transform="translate(-246,-46) scale(1,1)"><g><path fill="none" stroke="none"/><text fill="#000000" stroke="none" font-family="Arial" font-size="13px" font-style="normal" font-weight="normal" text-decoration="none" x="493" y="317.5">+toString(): String</text></g></g><g transform="translate(-246,-46) scale(1,1)"><path fill="none" stroke="#000000" d="M 425 258 L 487 257" stroke-miterlimit="10"/></g><g transform="translate(-246,-46) scale(1,1)"><path fill="#000000" stroke="none" d="M 476.90653339055456 261.37286311288267 L 487 257 L 476.7707601544613 252.95492247510097 L 465.00286104429324 257.3547925638017"/></g><g transform="translate(-246,-46) scale(1,1)"><path fill="none" stroke="#000000" d="M 476.90653339055456 261.37286311288267 L 487 257 L 476.7707601544613 252.95492247510097 L 465.00286104429324 257.3547925638017 L 476.90653339055456 261.37286311288267" stroke-miterlimit="10"/></g><g transform="translate(-246,-46) scale(1,1)"><rect fill="#C0C0C0" stroke="none" x="495" y="63" width="128.58349609375" height="87" opacity="0.2"/></g><g transform="translate(-246,-46) scale(1,1)"><rect fill="#ffffff" stroke="none" x="488" y="56" width="128.58349609375" height="87"/></g><g transform="translate(-246,-46) scale(1,1)"><path fill="none" stroke="#000000" d="M 488 56 L 616.58349609375 56 L 616.58349609375 143 L 488 143 L 488 56 Z Z" stroke-miterlimit="10"/></g><g transform="translate(-246,-46) scale(1,1)"><path fill="none" stroke="#000000" d="M 488 81 L 616.58349609375 81" stroke-miterlimit="10"/></g><g transform="translate(-246,-46) scale(1,1)"><path fill="none" stroke="#000000" d="M 488 134 L 616.58349609375 134" stroke-miterlimit="10"/></g><g transform="translate(-246,-46) scale(1,1)"><g><path fill="none" stroke="none"/><text fill="#000000" stroke="none" font-family="Arial" font-size="13px" font-style="normal" font-weight="bold" text-decoration="none" x="520.8486328125" y="75.5">Ciudadano</text></g></g><g transform="translate(-246,-46) scale(1,1)"><g><path fill="none" stroke="none"/><text fill="#000000" stroke="none" font-family="Arial" font-size="13px" font-style="normal" font-weight="normal" text-decoration="none" x="493" y="98.5">+nombre: String</text></g></g><g transform="translate(-246,-46) scale(1,1)"><g><path fill="none" stroke="none"/><text fill="#000000" stroke="none" font-family="Arial" font-size="13px" font-style="normal" font-weight="normal" text-decoration="none" x="493" y="113.5">+claveElector: String</text></g></g><g transform="translate(-246,-46) scale(1,1)"><g><path fill="none" stroke="none"/><text fill="#000000" stroke="none" font-family="Arial" font-size="13px" font-style="normal" font-weight="normal" text-decoration="none" x="493" y="128.5">+contrasena: String</text></g></g></g></svg>