<svg version="1.1" xmlns="http://www.w3.org/2000/svg" xmlns:xlink="http://www.w3.org/1999/xlink" width="386.29248046875" height="92"><defs/><g><g transform="translate(-190,-150) scale(1,1)"><rect fill="#C0C0C0" stroke="none" x="207" y="167" width="192" height="72" opacity="0.2"/></g><g transform="translate(-190,-150) scale(1,1)"><rect fill="#ffffff" stroke="none" x="200" y="160" width="192" height="72"/></g><g transform="translate(-190,-150) scale(1,1)"><path fill="none" stroke="#000000" d="M 200 160 L 392 160 L 392 232 L 200 232 L 200 160 Z Z" stroke-miterlimit="10"/></g><g transform="translate(-190,-150) scale(1,1)"><path fill="none" stroke="#000000" d="M 200 185 L 392 185" stroke-miterlimit="10"/></g><g transform="translate(-190,-150) scale(1,1)"><path fill="none" stroke="#000000" d="M 200 208 L 392 208" stroke-miterlimit="10"/></g><g transform="translate(-190,-150) scale(1,1)"><g><path fill="none" stroke="none"/><text fill="#000000" stroke="none" font-family="Arial" font-size="13px" font-style="normal" font-weight="bold" text-decoration="none" x="276.852294921875" y="179.5">Cajero</text></g></g><g transform="translate(-190,-150) scale(1,1)"><g><path fill="none" stroke="none"/><text fill="#000000" stroke="none" font-family="Arial" font-size="13px" font-style="normal" font-weight="normal" text-decoration="none" x="205" y="202.5">-velocidad: Integer</text></g></g><g transform="translate(-190,-150) scale(1,1)"><g><path fill="none" stroke="none"/><text fill="#000000" stroke="none" font-family="Arial" font-size="13px" font-style="normal" font-weight="normal" text-decoration="none" x="205" y="225.5">+cobrar(Cliente c): void</text></g></g><g transform="translate(-190,-150) scale(1,1)"><rect fill="#C0C0C0" stroke="none" x="423" y="167" width="150.29248046875" height="72" opacity="0.2"/></g><g transform="translate(-190,-150) scale(1,1)"><rect fill="#ffffff" stroke="none" x="416" y="160" width="150.29248046875" height="72"/></g><g transform="translate(-190,-150) scale(1,1)"><path fill="none" stroke="#000000" d="M 416 160 L 566.29248046875 160 L 566.29248046875 232 L 416 232 L 416 160 Z Z" stroke-miterlimit="10"/></g><g transform="translate(-190,-150) scale(1,1)"><path fill="none" stroke="#000000" d="M 416 185 L 566.29248046875 185" stroke-miterlimit="10"/></g><g transform="translate(-190,-150) scale(1,1)"><path fill="none" stroke="#000000" d="M 416 223 L 566.29248046875 223" stroke-miterlimit="10"/></g><g transform="translate(-190,-150) scale(1,1)"><g><path fill="none" stroke="none"/><text fill="#000000" stroke="none" font-family="Arial" font-size="13px" font-style="normal" font-weight="bold" text-decoration="none" x="470.9130859375" y="179.5">Cliente</text></g></g><g transform="translate(-190,-150) scale(1,1)"><g><path fill="none" stroke="none"/><text fill="#000000" stroke="none" font-family="Arial" font-size="13px" font-style="normal" font-weight="normal" text-decoration="none" x="421" y="202.5">-productos: Integer</text></g></g><g transform="translate(-190,-150) scale(1,1)"><g><path fill="none" stroke="none"/><text fill="#000000" stroke="none" font-family="Arial" font-size="13px" font-style="normal" font-weight="normal" text-decoration="none" x="421" y="217.5">-formaDePago: boolean</text></g></g></g></svg>